<svg xmlns="http://www.w3.org/2000/svg" fill="none" viewBox="0 0 138 82">
  <g filter="url(#a)">
    <rect width="106" height="50" x="16" y="16" fill="#fff" rx="25"/>
  </g>
  <path fill="#8F8F8F" d="M66.822 46.084a16.267 16.267 0 0 1-2.002-.126 5.208 5.208 0 0 1-.616-.112v-9.408c.187-.047.392-.084.616-.112a16.452 16.452 0 0 1 1.988-.126c.56 0 1.083.042 1.568.126.495.084.92.229 1.274.434.364.196.649.457.854.784.205.327.308.728.308 1.204 0 .532-.126.97-.378 1.316a2.293 2.293 0 0 1-1.008.756c.57.168 1.022.434 1.358.798.336.364.504.877.504 1.54 0 .97-.36 1.703-1.078 2.198-.71.485-1.839.728-3.388.728Zm-1.274-4.606v3.416a23.636 23.636 0 0 0 .784.056h.574c.401 0 .78-.023 1.134-.07a3.36 3.36 0 0 0 .952-.28c.27-.13.485-.313.644-.546.168-.233.252-.527.252-.882 0-.317-.06-.583-.182-.798a1.327 1.327 0 0 0-.532-.532 2.445 2.445 0 0 0-.812-.28 6.15 6.15 0 0 0-1.064-.084h-1.75Zm0-1.092h1.428c.336 0 .653-.023.952-.07.299-.047.555-.13.77-.252.224-.121.397-.28.518-.476.13-.196.196-.443.196-.742 0-.28-.065-.513-.196-.7a1.331 1.331 0 0 0-.546-.462 2.674 2.674 0 0 0-.798-.266 5.475 5.475 0 0 0-.98-.084c-.345 0-.616.005-.812.014-.196.01-.373.023-.532.042v2.996Zm8.842 4.634c.056.01.135.019.238.028.103.01.22.019.35.028.13 0 .266.005.406.014h.42c.27 0 .527-.019.77-.056.252-.037.467-.103.644-.196a1.12 1.12 0 0 0 .434-.364c.112-.159.168-.36.168-.602 0-.233-.051-.425-.154-.574a1.018 1.018 0 0 0-.392-.378 1.827 1.827 0 0 0-.602-.196 4.439 4.439 0 0 0-.728-.056H74.39v2.352Zm1.386-3.318c.252 0 .48-.014.686-.042.215-.037.397-.098.546-.182a.94.94 0 0 0 .504-.868c0-.224-.056-.401-.168-.532a1.017 1.017 0 0 0-.448-.294 1.992 1.992 0 0 0-.616-.14 5.527 5.527 0 0 0-.686-.042c-.215 0-.434.005-.658.014-.215.01-.397.019-.546.028v2.058h1.386Zm-.028 4.424c-.55 0-1.06-.028-1.526-.084a8.589 8.589 0 0 1-1.106-.168V38.79c.27-.065.64-.121 1.106-.168.467-.056.975-.084 1.526-.084.383 0 .756.033 1.12.098.364.065.686.177.966.336.28.15.504.36.672.63.177.261.266.588.266.98 0 .355-.089.658-.266.91a1.773 1.773 0 0 1-.714.588c.401.14.719.35.952.63.243.27.364.653.364 1.148 0 .439-.089.803-.266 1.092-.168.29-.406.523-.714.7a2.984 2.984 0 0 1-1.064.364c-.41.075-.85.112-1.316.112Zm4.632-3.752c0-.644.093-1.204.28-1.68.187-.485.434-.887.742-1.204a3.014 3.014 0 0 1 1.064-.714 3.323 3.323 0 0 1 1.232-.238c.98 0 1.731.308 2.254.924.523.607.784 1.535.784 2.786v.224c0 .084-.005.163-.014.238h-4.984c.056.756.275 1.33.658 1.722.383.392.98.588 1.792.588.457 0 .84-.037 1.148-.112a4.47 4.47 0 0 0 .714-.238l.182 1.092c-.159.084-.439.173-.84.266-.392.093-.84.14-1.344.14-.635 0-1.185-.093-1.652-.28a3.151 3.151 0 0 1-1.134-.798 3.316 3.316 0 0 1-.672-1.19 5.29 5.29 0 0 1-.21-1.526Zm4.998-.714c.01-.588-.14-1.069-.448-1.442-.299-.383-.714-.574-1.246-.574-.299 0-.565.06-.798.182a1.802 1.802 0 0 0-.574.448 2.209 2.209 0 0 0-.378.644c-.084.243-.14.49-.168.742h3.612Zm8.282.714c0-.85-.21-1.503-.63-1.96-.42-.457-.98-.686-1.68-.686-.392 0-.7.014-.924.042a3.7 3.7 0 0 0-.518.098v4.592c.159.13.388.257.686.378.299.121.626.182.98.182.374 0 .691-.065.952-.196.271-.14.49-.327.658-.56.168-.243.29-.523.364-.84.075-.327.112-.677.112-1.05Zm1.358 0c0 .55-.074 1.06-.224 1.526-.14.467-.35.868-.63 1.204a2.88 2.88 0 0 1-1.036.784c-.401.187-.863.28-1.386.28-.42 0-.793-.056-1.12-.168a3.543 3.543 0 0 1-.714-.322v2.912h-1.302v-9.646c.308-.075.691-.154 1.148-.238a8.275 8.275 0 0 1 1.61-.14c.56 0 1.064.089 1.512.266.448.177.831.43 1.148.756.318.327.56.728.728 1.204.178.467.266.994.266 1.582ZM100.972 46a11.481 11.481 0 0 0-.378-.686 14.903 14.903 0 0 0-.49-.77c-.177-.27-.36-.537-.546-.798a30.785 30.785 0 0 0-.546-.742c-.177.233-.36.485-.546.756-.187.261-.369.527-.546.798-.168.261-.327.518-.476.77-.15.252-.275.476-.378.672h-1.344a17.96 17.96 0 0 1 1.162-1.932c.457-.663.91-1.293 1.358-1.89l-2.408-3.458h1.47l1.736 2.548 1.75-2.548h1.386l-2.352 3.374c.448.607.905 1.25 1.372 1.932.476.672.877 1.33 1.204 1.974h-1.428Z"/>
  <path stroke="#8F8F8F" stroke-linecap="round" stroke-width="2" d="m47.5 44.25-6.5-6.5-6.5 6.5"/>
  <defs>
    <filter id="a" width="138" height="82" x="0" y="0" color-interpolation-filters="sRGB" filterUnits="userSpaceOnUse">
      <feFlood flood-opacity="0" result="BackgroundImageFix"/>
      <feColorMatrix in="SourceAlpha" result="hardAlpha" values="0 0 0 0 0 0 0 0 0 0 0 0 0 0 0 0 0 0 127 0"/>
      <feOffset/>
      <feGaussianBlur stdDeviation="8"/>
      <feComposite in2="hardAlpha" operator="out"/>
      <feColorMatrix values="0 0 0 0 0 0 0 0 0 0 0 0 0 0 0 0 0 0 0.08 0"/>
      <feBlend in2="BackgroundImageFix" result="effect1_dropShadow_542_1699"/>
      <feBlend in="SourceGraphic" in2="effect1_dropShadow_542_1699" result="shape"/>
    </filter>
  </defs>
</svg>
