<svg width="224" height="364" viewBox="0 0 224 364" fill="none" xmlns="http://www.w3.org/2000/svg">
<g clip-path="url(#clip0_1_116)">
<rect width="224" height="260" fill="#EAEAEA"/>
<rect x="84" y="243" width="56" height="8" rx="3" fill="#F8F8F8"/>
<rect y="260" width="224" height="104" fill="#F8F8F8"/>
<rect x="187" y="270" width="25" height="25" rx="8" fill="#EAEAEA"/>
<rect x="12" y="331" width="200" height="14" rx="6" fill="#EAEAEA"/>
<path d="M23.748 283.344C23.748 285.911 23.2567 287.883 22.274 289.262C21.306 290.626 19.964 291.308 18.248 291.308C16.532 291.308 15.1827 290.626 14.2 289.262C13.232 287.883 12.748 285.911 12.748 283.344C12.748 282.068 12.8727 280.939 13.122 279.956C13.386 278.973 13.76 278.145 14.244 277.47C14.728 276.795 15.3073 276.282 15.982 275.93C16.6567 275.578 17.412 275.402 18.248 275.402C19.964 275.402 21.306 276.091 22.274 277.47C23.2567 278.834 23.748 280.792 23.748 283.344ZM20.404 283.344C20.404 282.581 20.3673 281.892 20.294 281.276C20.2207 280.645 20.1033 280.103 19.942 279.648C19.7807 279.193 19.5607 278.841 19.282 278.592C19.0033 278.343 18.6587 278.218 18.248 278.218C17.8373 278.218 17.4927 278.343 17.214 278.592C16.95 278.841 16.73 279.193 16.554 279.648C16.3927 280.103 16.2753 280.645 16.202 281.276C16.1287 281.892 16.092 282.581 16.092 283.344C16.092 284.107 16.1287 284.803 16.202 285.434C16.2753 286.065 16.3927 286.607 16.554 287.062C16.73 287.517 16.95 287.869 17.214 288.118C17.4927 288.367 17.8373 288.492 18.248 288.492C18.6587 288.492 19.0033 288.367 19.282 288.118C19.5607 287.869 19.7807 287.517 19.942 287.062C20.1033 286.607 20.2207 286.065 20.294 285.434C20.3673 284.803 20.404 284.107 20.404 283.344ZM41.5371 283.344C41.5371 285.911 41.0457 287.883 40.0631 289.262C39.0951 290.626 37.7531 291.308 36.0371 291.308C34.3211 291.308 32.9717 290.626 31.9891 289.262C31.0211 287.883 30.5371 285.911 30.5371 283.344C30.5371 282.068 30.6617 280.939 30.9111 279.956C31.1751 278.973 31.5491 278.145 32.0331 277.47C32.5171 276.795 33.0964 276.282 33.7711 275.93C34.4457 275.578 35.2011 275.402 36.0371 275.402C37.7531 275.402 39.0951 276.091 40.0631 277.47C41.0457 278.834 41.5371 280.792 41.5371 283.344ZM38.1931 283.344C38.1931 282.581 38.1564 281.892 38.0831 281.276C38.0097 280.645 37.8924 280.103 37.7311 279.648C37.5697 279.193 37.3497 278.841 37.0711 278.592C36.7924 278.343 36.4477 278.218 36.0371 278.218C35.6264 278.218 35.2817 278.343 35.0031 278.592C34.7391 278.841 34.5191 279.193 34.3431 279.648C34.1817 280.103 34.0644 280.645 33.9911 281.276C33.9177 281.892 33.8811 282.581 33.8811 283.344C33.8811 284.107 33.9177 284.803 33.9911 285.434C34.0644 286.065 34.1817 286.607 34.3431 287.062C34.5191 287.517 34.7391 287.869 35.0031 288.118C35.2817 288.367 35.6264 288.492 36.0371 288.492C36.4477 288.492 36.7924 288.367 37.0711 288.118C37.3497 287.869 37.5697 287.517 37.7311 287.062C37.8924 286.607 38.0097 286.065 38.0831 285.434C38.1564 284.803 38.1931 284.107 38.1931 283.344ZM54.041 283.344C54.041 285.911 53.5496 287.883 52.567 289.262C51.599 290.626 50.257 291.308 48.541 291.308C46.825 291.308 45.4756 290.626 44.493 289.262C43.525 287.883 43.041 285.911 43.041 283.344C43.041 282.068 43.1656 280.939 43.415 279.956C43.679 278.973 44.053 278.145 44.537 277.47C45.021 276.795 45.6003 276.282 46.275 275.93C46.9496 275.578 47.705 275.402 48.541 275.402C50.257 275.402 51.599 276.091 52.567 277.47C53.5496 278.834 54.041 280.792 54.041 283.344ZM50.697 283.344C50.697 282.581 50.6603 281.892 50.587 281.276C50.5136 280.645 50.3963 280.103 50.235 279.648C50.0736 279.193 49.8536 278.841 49.575 278.592C49.2963 278.343 48.9516 278.218 48.541 278.218C48.1303 278.218 47.7856 278.343 47.507 278.592C47.243 278.841 47.023 279.193 46.847 279.648C46.6856 280.103 46.5683 280.645 46.495 281.276C46.4216 281.892 46.385 282.581 46.385 283.344C46.385 284.107 46.4216 284.803 46.495 285.434C46.5683 286.065 46.6856 286.607 46.847 287.062C47.023 287.517 47.243 287.869 47.507 288.118C47.7856 288.367 48.1303 288.492 48.541 288.492C48.9516 288.492 49.2963 288.367 49.575 288.118C49.8536 287.869 50.0736 287.517 50.235 287.062C50.3963 286.607 50.5136 286.065 50.587 285.434C50.6603 284.803 50.697 284.107 50.697 283.344ZM66.5449 283.344C66.5449 285.911 66.0535 287.883 65.0709 289.262C64.1029 290.626 62.7609 291.308 61.0449 291.308C59.3289 291.308 57.9795 290.626 56.9969 289.262C56.0289 287.883 55.5449 285.911 55.5449 283.344C55.5449 282.068 55.6695 280.939 55.9189 279.956C56.1829 278.973 56.5569 278.145 57.0409 277.47C57.5249 276.795 58.1042 276.282 58.7789 275.93C59.4535 275.578 60.2089 275.402 61.0449 275.402C62.7609 275.402 64.1029 276.091 65.0709 277.47C66.0535 278.834 66.5449 280.792 66.5449 283.344ZM63.2009 283.344C63.2009 282.581 63.1642 281.892 63.0909 281.276C63.0175 280.645 62.9002 280.103 62.7389 279.648C62.5775 279.193 62.3575 278.841 62.0789 278.592C61.8002 278.343 61.4555 278.218 61.0449 278.218C60.6342 278.218 60.2895 278.343 60.0109 278.592C59.7469 278.841 59.5269 279.193 59.3509 279.648C59.1895 280.103 59.0722 280.645 58.9989 281.276C58.9255 281.892 58.8889 282.581 58.8889 283.344C58.8889 284.107 58.9255 284.803 58.9989 285.434C59.0722 286.065 59.1895 286.607 59.3509 287.062C59.5269 287.517 59.7469 287.869 60.0109 288.118C60.2895 288.367 60.6342 288.492 61.0449 288.492C61.4555 288.492 61.8002 288.367 62.0789 288.118C62.3575 287.869 62.5775 287.517 62.7389 287.062C62.9002 286.607 63.0175 286.065 63.0909 285.434C63.1642 284.803 63.2009 284.107 63.2009 283.344ZM74.5659 291V275.292H79.5819C81.6059 275.292 83.0799 275.703 84.0039 276.524C84.9426 277.345 85.4119 278.475 85.4119 279.912C85.4119 280.763 85.2213 281.562 84.8399 282.31C84.4586 283.058 83.8206 283.659 82.9259 284.114C82.0459 284.569 80.8433 284.796 79.3179 284.796H77.8879V291H74.5659ZM72.8059 288.646V286.512H81.2759V288.646H72.8059ZM72.8059 284.796V282.068H79.2519V284.796H72.8059ZM78.9879 282.068C79.6186 282.068 80.1613 282.002 80.6159 281.87C81.0706 281.723 81.4226 281.496 81.6719 281.188C81.9213 280.88 82.0459 280.491 82.0459 280.022C82.0459 279.347 81.8333 278.849 81.4079 278.526C80.9826 278.189 80.3153 278.02 79.4059 278.02H77.8879V282.068H78.9879Z" fill="#2C2C2C"/>
<rect x="12" y="305" width="200" height="16" rx="6" fill="#EAEAEA"/>
<rect x="12" y="270" width="166" height="25" rx="8" fill="#EAEAEA"/>
</g>
<defs>
<clipPath id="clip0_1_116">
<rect width="224" height="364" rx="12" fill="white"/>
</clipPath>
</defs>
</svg>
